<svg xmlns="http://www.w3.org/2000/svg" xmlns:xlink="http://www.w3.org/1999/xlink" width="15.279" height="19.174" viewBox="0 0 15.279 19.174">
  <defs>
    <linearGradient id="linear-gradient" x1="0.5" x2="0.5" y2="1" gradientUnits="objectBoundingBox">
      <stop offset="0" stop-color="#15afb7"/>
      <stop offset="1" stop-color="#1a3fcf"/>
    </linearGradient>
  </defs>
  <g id="doctors" transform="translate(-995 -944)">
    <path id="Path_338" data-name="Path 338" d="M1008.549,957.775a6.514,6.514,0,0,0-2.23-1.573h0a6.482,6.482,0,0,0-1.485-.431v-.446a4.425,4.425,0,0,0,1.746-1.889,5.9,5.9,0,0,0,1.853-2.48l.009-.028a4.952,4.952,0,0,0,.219-1.444,5.489,5.489,0,0,0-5.482-5.482H1002.1a5.489,5.489,0,0,0-5.482,5.482,4.844,4.844,0,0,0,.215,1.431,5.83,5.83,0,0,0,1.89,2.651,4.424,4.424,0,0,0,1.969,1.915v.255a6.512,6.512,0,0,0-5.693,6.46v.42a.561.561,0,0,0,.561.561h14.156a.561.561,0,0,0,.561-.561v-.42a6.491,6.491,0,0,0-1.729-4.419Zm-1.71,4.277h-1.479v-.94c0-.526.3-.919.56-.919h.358c.264,0,.56.393.56.919Zm-3.13-5.829a.572.572,0,0,0,0,.061.947.947,0,0,1-1.893-.041v-.394a4.405,4.405,0,0,0,1.894-.064Zm-5.8-5.641a3.72,3.72,0,0,1-.165-1.1,4.365,4.365,0,0,1,4.36-4.36h1.076a4.365,4.365,0,0,1,4.36,4.36,3.82,3.82,0,0,1-.164,1.1,5.052,5.052,0,0,1-.361.712v-.5a4.408,4.408,0,0,0-4.349-4.394h-.006a.561.561,0,0,0-.493.293,5.216,5.216,0,0,1-1.6,1.735,5.469,5.469,0,0,1-1.788.836.561.561,0,0,0-.406.4,4.379,4.379,0,0,0-.148,1.13v.49a4.216,4.216,0,0,1-.317-.694Zm1.78,2.4a.572.572,0,0,0-.03-.062,3.251,3.251,0,0,1-.31-1.39v-.742a3.257,3.257,0,0,1,.045-.537,6.736,6.736,0,0,0,1.82-.91,6.494,6.494,0,0,0,1.756-1.806,3.284,3.284,0,0,1,2.923,3.253v.742a3.255,3.255,0,0,1-.258,1.273.526.526,0,0,0-.028.064,3.294,3.294,0,0,1-1.542,1.6.542.542,0,0,0-.067.032,3.27,3.27,0,0,1-2.51.1.553.553,0,0,0-.068-.026,3.292,3.292,0,0,1-1.731-1.591Zm-.142,6.131a.5.5,0,1,1-.5.5.5.5,0,0,1,.5-.5Zm-1.92-.652a5.4,5.4,0,0,1,1.359-1.028v.659a1.623,1.623,0,1,0,1.122,0v-1.1a5.376,5.376,0,0,1,.678-.136,2.069,2.069,0,0,0,3.943.037,5.355,5.355,0,0,1,.811.212v2.022a2,2,0,0,0-1.3,1.987v.94h-8.114a5.362,5.362,0,0,1,1.5-3.592Zm10.337,3.592v-.94a2,2,0,0,0-1.3-1.988v-1.478a5.4,5.4,0,0,1,2.494,4.406Zm0,0" fill="url(#linear-gradient)"/>
  </g>
</svg>
