<svg xmlns="http://www.w3.org/2000/svg" width="37.678" height="57" viewBox="0 0 37.678 57">
  <g id="download_app" data-name="download app" transform="translate(-1043 -964)">
    <path id="Path_308" data-name="Path 308" d="M1046.865,964h23.186a3.865,3.865,0,0,1,3.865,3.864v48.305a3.865,3.865,0,0,1-3.865,3.864h-23.186a3.865,3.865,0,0,1-3.865-3.864V967.864a3.865,3.865,0,0,1,3.865-3.864Zm0,0" fill="#fff"/>
    <rect id="Rectangle_636" data-name="Rectangle 636" width="30.915" height="44.441" transform="translate(1043 969.797)" fill="#1a3fcf"/>
    <path id="Path_309" data-name="Path 309" d="M1095.168,1056.441h24.615V1012h-3.918Zm0,0" transform="translate(-45.868 -42.203)" fill="#3d60e9"/>
    <path id="Path_310" data-name="Path 310" d="M1229.344,1081.656" transform="translate(-163.841 -103.448)" fill="#e8594a"/>
    <path id="Union_28" data-name="Union 28" d="M5.075,20.413a2.255,2.255,0,0,1,0-4.509H10.2a5.7,5.7,0,0,0,0-11.395H5.075A2.255,2.255,0,0,1,5.075,0H10.2a10.206,10.206,0,0,1,0,20.413Zm-1.3-6.43A3.776,3.776,0,0,1,0,10.206a3.728,3.728,0,0,1,.052-.63A3.778,3.778,0,0,1,3.778,6.43h6.3a3.777,3.777,0,0,1,0,7.554Z" transform="translate(1048.729 980.696)" fill="#fff" stroke="rgba(0,0,0,0)" stroke-width="1" opacity="0.29"/>
    <path id="Path_311" data-name="Path 311" d="M1201.413,1185.275l-4.373-5.275v12.559l-8.212-8.212a3.416,3.416,0,0,0-4.831,4.831l8.212,8.212-.8,1.392a9.1,9.1,0,0,0,.8,10.2v1.932H1203.8v-19.279a9.661,9.661,0,0,0-2.39-6.361Zm0,0" transform="translate(-123.125 -189.915)" fill="#fec9a3"/>
  </g>
</svg>
